<?xml version="1.0" encoding="UTF-8"?>
<svg id="Layer_1" data-name="Layer 1" xmlns="http://www.w3.org/2000/svg" width="398" height="58.6" version="1.1" viewBox="0 0 398 58.6">
  <defs>
    <style>
      .cls-1 {
        fill: #000;
      }

      .cls-1, .cls-2, .cls-3 {
        stroke-width: 0px;
      }

      .cls-2 {
        fill: #fff;
      }

      .cls-3 {
        fill: #4239ff;
      }
    </style>
  </defs>
  <g>
    <path class="cls-1" d="M214.7,46.2h4.1c2.1,0,3.6,1.3,3.6,3.2s-1.6,3.2-3.6,3.2h-2.7v3.4h-1.4v-9.8ZM218.7,51.3c1.4,0,2.4-.7,2.4-1.9s-1-1.9-2.4-1.9h-2.5v3.7h2.5Z"/>
    <path class="cls-1" d="M223.4,52.3c0-2.1,1.8-3.9,3.9-3.9s3.9,1.8,3.9,3.9-1.8,3.9-3.9,3.9-3.9-1.8-3.9-3.9ZM229.8,52.3c0-1.4-1.1-2.6-2.5-2.6s-2.5,1.2-2.5,2.6,1.1,2.6,2.5,2.6,2.5-1.2,2.5-2.6Z"/>
    <path class="cls-1" d="M231.8,48.7h1.4l1.7,5.5,1.8-5.5h1.2l1.8,5.5,1.7-5.5h1.4l-2.5,7.4h-1.3l-1.8-5.5-1.8,5.5h-1.3l-2.5-7.4Z"/>
    <path class="cls-1" d="M249.3,54.2l.9.9c-.7.7-1.9,1.1-3,1.1-2.1,0-3.8-1.6-3.8-3.9s1.6-3.8,3.7-3.8,3.6,1.7,3.6,4.4h-5.8c.2,1.2,1.1,2.1,2.4,2.1s1.7-.3,2.1-.8ZM244.9,51.7h4.4c-.2-1.1-.9-2-2.1-2s-2.1.8-2.3,2Z"/>
    <path class="cls-1" d="M256.4,48.5v1.2c-1.5,0-2.6.8-2.7,2.1v4.2h-1.4v-7.4h1.4v1.4c.5-1,1.5-1.6,2.7-1.6Z"/>
    <path class="cls-1" d="M263.1,54.2l.9.9c-.7.7-1.9,1.1-3,1.1-2.1,0-3.8-1.6-3.8-3.9s1.6-3.8,3.7-3.8,3.6,1.7,3.6,4.4h-5.8c.2,1.2,1.1,2.1,2.4,2.1s1.7-.3,2.1-.8ZM258.7,51.7h4.4c-.2-1.1-.9-2-2.1-2s-2.1.8-2.3,2Z"/>
    <path class="cls-1" d="M273.1,46.1v10h-1.4v-1.3c-.6.9-1.5,1.5-2.6,1.5-1.9,0-3.4-1.6-3.4-3.9s1.5-3.9,3.4-3.9,2.1.5,2.6,1.4v-3.9h1.4ZM271.7,52.3c0-1.5-1-2.6-2.3-2.6s-2.3,1.1-2.3,2.6,1,2.6,2.3,2.6,2.3-1.1,2.3-2.6Z"/>
    <path class="cls-1" d="M286.5,52.3c0,2.3-1.5,3.9-3.4,3.9s-2.1-.5-2.6-1.5v1.3h-1.4v-10h1.4v3.9c.6-.9,1.5-1.4,2.6-1.4,1.9,0,3.4,1.6,3.4,3.9ZM285.1,52.3c0-1.5-1-2.6-2.3-2.6s-2.3,1.1-2.3,2.6,1,2.6,2.3,2.6,2.3-1.1,2.3-2.6Z"/>
    <path class="cls-1" d="M288,58.3l.3-1.1c.3.2.6.2.9.2.5,0,.8-.1,1-.6l.4-.8-3.2-7.4h1.5l2.4,5.8,2.2-5.8h1.5l-3.3,8.1c-.5,1.3-1.3,1.9-2.4,1.9-.5,0-1-.1-1.4-.3Z"/>
    <path class="cls-1" d="M300.6,46.2h3.4c3.2,0,5.4,2,5.4,4.9s-2.3,4.9-5.4,4.9h-3.4v-9.8ZM304.1,54.7c2.3,0,3.9-1.5,3.9-3.6s-1.6-3.6-3.9-3.6h-2v7.2h2Z"/>
    <path class="cls-1" d="M316.6,54.2l.9.9c-.7.7-1.9,1.1-3,1.1-2.1,0-3.8-1.6-3.8-3.9s1.6-3.8,3.7-3.8,3.6,1.7,3.6,4.4h-5.8c.2,1.2,1.1,2.1,2.4,2.1s1.7-.3,2.1-.8ZM312.2,51.7h4.4c-.2-1.1-.9-2-2.1-2s-2.1.8-2.3,2Z"/>
    <path class="cls-1" d="M319,55.1l.7-1c.8.6,1.6.9,2.5.9s1.4-.4,1.4-1-.8-.9-1.7-1.2c-1.7-.5-2.5-1-2.5-2.2,0-1.4,1.1-2.2,2.7-2.2s1.9.3,2.7.9l-.6,1c-.7-.4-1.5-.7-2.1-.7s-1.3.3-1.3.9.5.7,1.7,1.1c1.2.4,2.5.8,2.5,2.2s-1.2,2.3-2.8,2.3-2.3-.4-3.2-1.1Z"/>
    <path class="cls-1" d="M326.3,46.6c0-.4.4-.8.9-.8s.8.4.8.8-.4.9-.8.9-.9-.4-.9-.9ZM326.4,48.7h1.4v7.4h-1.4v-7.4Z"/>
    <path class="cls-1" d="M336.7,48.7v6.6c0,1.9-1.6,3.2-3.7,3.2s-2.4-.4-3.1-1l.6-1.1c.5.5,1.4.8,2.3.8,1.6,0,2.5-.8,2.5-2v-1.1c-.6.8-1.5,1.3-2.6,1.3-1.9,0-3.4-1.5-3.4-3.5s1.4-3.5,3.4-3.5,2.1.5,2.6,1.4v-1.2h1.4ZM335.3,52c0-1.3-.9-2.3-2.3-2.3s-2.2.9-2.2,2.3.9,2.3,2.2,2.3,2.3-.9,2.3-2.3Z"/>
    <path class="cls-1" d="M345.2,51.3v4.7h-1.4v-4.5c0-1.1-.7-1.9-1.7-1.9s-1.9.7-2,1.5v4.8h-1.4v-7.4h1.4v1.1c.4-.7,1.3-1.2,2.3-1.2,1.6,0,2.8,1.2,2.8,2.9Z"/>
    <path class="cls-1" d="M359.4,46.2v9.8h-1.4v-4.3h-5.4v4.3h-1.4v-9.8h1.4v4.1h5.4v-4.1h1.4Z"/>
    <path class="cls-1" d="M367.8,48.7v7.4h-1.4v-1.1c-.4.7-1.3,1.2-2.3,1.2-1.6,0-2.8-1.2-2.8-2.9v-4.7h1.4v4.5c0,1.1.7,1.9,1.7,1.9s1.9-.7,2-1.5v-4.8h1.4Z"/>
    <path class="cls-1" d="M376.8,46.1v10h-1.4v-1.3c-.6.9-1.5,1.5-2.6,1.5-1.9,0-3.4-1.6-3.4-3.9s1.5-3.9,3.4-3.9,2.1.5,2.6,1.4v-3.9h1.4ZM375.4,52.3c0-1.5-1-2.6-2.3-2.6s-2.3,1.1-2.3,2.6,1,2.6,2.3,2.6,2.3-1.1,2.3-2.6Z"/>
    <path class="cls-1" d="M385.9,46.1v10h-1.4v-1.3c-.6.9-1.5,1.5-2.6,1.5-1.9,0-3.4-1.6-3.4-3.9s1.5-3.9,3.4-3.9,2.1.5,2.6,1.4v-3.9h1.4ZM384.5,52.3c0-1.5-1-2.6-2.3-2.6s-2.3,1.1-2.3,2.6,1,2.6,2.3,2.6,2.3-1.1,2.3-2.6Z"/>
    <path class="cls-1" d="M387.9,46.1h1.4v10h-1.4v-10Z"/>
    <path class="cls-1" d="M396.7,54.2l.9.9c-.7.7-1.9,1.1-3,1.1-2.1,0-3.8-1.6-3.8-3.9s1.6-3.8,3.7-3.8,3.6,1.7,3.6,4.4h-5.8c.2,1.2,1.1,2.1,2.4,2.1s1.7-.3,2.1-.8ZM392.2,51.7h4.4c-.2-1.1-.9-2-2.1-2s-2.1.8-2.3,2Z"/>
  </g>
  <g>
    <g>
      <path class="cls-1" d="M90.3,24.7v3.1h7.3v2.8h-7.3v5.7h-3.1v-14.4h11.1v2.8h-8Z"/>
      <path class="cls-1" d="M109.2,36.4l-3.3-4.7h-2.3v4.7h-3.1v-14.4h6.5c3.1,0,5.4,2,5.4,4.9s-1.3,3.8-3.3,4.5l3.6,5h-3.5ZM103.6,28.8h3.1c1.5,0,2.6-.8,2.6-2s-1.1-2-2.6-2h-3.1v4.1Z"/>
      <path class="cls-1" d="M117.9,24.7v2.9h7.3v2.8h-7.3v3.2h8v2.8h-11.1v-14.4h11.1v2.8h-8Z"/>
      <path class="cls-1" d="M131.4,24.7v2.9h7.3v2.8h-7.3v3.2h8v2.8h-11.1v-14.4h11.1v2.8h-8Z"/>
      <path class="cls-1" d="M147,29.1c0-4.1,3.5-7.5,7.7-7.5s7.7,3.4,7.7,7.5-3.5,7.5-7.7,7.5-7.7-3.4-7.7-7.5ZM159.2,29.1c0-2.5-2.1-4.6-4.5-4.6s-4.5,2.1-4.5,4.6,2.1,4.7,4.5,4.7,4.5-2.1,4.5-4.7Z"/>
      <path class="cls-1" d="M167.8,24.7v3.1h7.3v2.8h-7.3v5.7h-3.1v-14.4h11.1v2.8h-8Z"/>
      <path class="cls-1" d="M181.1,24.7v3.1h7.3v2.8h-7.3v5.7h-3.1v-14.4h11.1v2.8h-8Z"/>
      <path class="cls-1" d="M191.4,21.9h3.1v14.4h-3.1v-14.4Z"/>
      <path class="cls-1" d="M196.8,29.1c0-4.1,3.5-7.5,7.7-7.5s4.2.9,5.6,2.4l-2.3,2c-.8-1-2-1.6-3.4-1.6-2.4,0-4.5,2.1-4.5,4.6s2.1,4.7,4.5,4.7,2.5-.7,3.4-1.6l2.3,2c-1.4,1.5-3.4,2.4-5.6,2.4-4.1,0-7.7-3.4-7.7-7.5Z"/>
      <path class="cls-1" d="M215.2,24.7v2.9h7.3v2.8h-7.3v3.2h8v2.8h-11.1v-14.4h11.1v2.8h-8Z"/>
      <path class="cls-1" d="M231.5,21.9h7.3c2.6,0,4.4,1.5,4.4,3.6s-.7,2.5-2,3.2c1.7.8,2.6,2.1,2.6,3.7,0,2.3-2,3.9-4.7,3.9h-7.6v-14.4ZM238.1,27.7c1.2,0,2-.7,2-1.6s-.8-1.6-2-1.6h-3.4v3.2h3.4ZM238.5,33.7c1.2,0,2.1-.7,2.1-1.8s-.9-1.8-2.1-1.8h-3.9v3.5h3.9Z"/>
      <path class="cls-1" d="M255.8,34.1h-6.4l-.9,2.3h-3.5l5.9-14.4h3.5l5.9,14.4h-3.5l-.9-2.3ZM254.7,31.5l-2.1-5.3-2.1,5.3h4.3Z"/>
      <path class="cls-1" d="M261.3,29.1c0-4.1,3.5-7.5,7.7-7.5s4.2.9,5.6,2.4l-2.3,2c-.8-1-2-1.6-3.4-1.6-2.4,0-4.5,2.1-4.5,4.6s2.1,4.7,4.5,4.7,2.5-.7,3.4-1.6l2.3,2c-1.4,1.5-3.4,2.4-5.6,2.4-4.1,0-7.7-3.4-7.7-7.5Z"/>
      <path class="cls-1" d="M276.6,21.9h3.1v6.6l5.8-6.6h3.8l-5.6,6.3,6,8.2h-3.8l-4.4-6-1.8,1.9v4h-3.1v-14.4Z"/>
      <path class="cls-1" d="M297.9,28.2h6.4v5.9c-1.5,1.5-3.7,2.4-5.8,2.4-4.2,0-7.7-3.4-7.7-7.5s3.6-7.5,7.7-7.5,4.4.9,5.8,2.4l-2.2,2c-.9-1-2.3-1.6-3.6-1.6-2.5,0-4.5,2.1-4.5,4.6s2.1,4.7,4.5,4.7,2-.3,2.8-.9v-2.2h-3.4v-2.4Z"/>
      <path class="cls-1" d="M315.6,36.4l-3.3-4.7h-2.3v4.7h-3.1v-14.4h6.5c3.1,0,5.4,2,5.4,4.9s-1.3,3.8-3.3,4.5l3.6,5h-3.5ZM310,28.8h3.1c1.5,0,2.6-.8,2.6-2s-1.1-2-2.6-2h-3.1v4.1Z"/>
      <path class="cls-1" d="M320.6,29.1c0-4.1,3.5-7.5,7.7-7.5s7.7,3.4,7.7,7.5-3.5,7.5-7.7,7.5-7.7-3.4-7.7-7.5ZM332.7,29.1c0-2.5-2.1-4.6-4.5-4.6s-4.5,2.1-4.5,4.6,2.1,4.7,4.5,4.7,4.5-2.1,4.5-4.7Z"/>
      <path class="cls-1" d="M338.2,30.1v-8.2h3.1v8.1c0,2.2,1.4,3.8,3.4,3.8s3.4-1.6,3.4-3.8v-8.1h3.1v8.2c0,3.8-2.7,6.5-6.5,6.5s-6.5-2.7-6.5-6.5Z"/>
      <path class="cls-1" d="M354.2,21.9h3.1l7,9.3v-9.3h3.1v14.4h-3.1l-7-9.3v9.3h-3.1v-14.4Z"/>
      <path class="cls-1" d="M370.5,21.9h5.2c4.9,0,8.3,3,8.3,7.2s-3.4,7.2-8.3,7.2h-5.2v-14.4ZM376.1,33.5c2.8,0,4.7-1.8,4.7-4.4s-2-4.4-4.7-4.4h-2.5v8.8h2.5Z"/>
      <path class="cls-1" d="M385.4,34.2l1.8-2.1c1.4,1.2,2.9,1.9,4.8,1.9s2.4-.7,2.4-1.6-.8-1.3-3-1.9c-3-.7-5.2-1.6-5.2-4.4s2.2-4.5,5.3-4.5,4.2.7,5.7,2l-1.6,2.2c-1.3-1-2.7-1.6-4.1-1.6s-2.1.7-2.1,1.6.9,1.4,3.1,1.9c3.1.7,5.2,1.6,5.2,4.3s-2.1,4.6-5.6,4.6-4.7-.8-6.4-2.4Z"/>
    </g>
    <rect class="cls-3" width="57.7" height="57.7" rx="5.4" ry="5.4"/>
    <path class="cls-2" d="M19.9,42.1h0c-2.4,0-4.3-1.9-4.3-4.3v-18c0-2.4,1.9-4.3,4.3-4.3h18c2.4,0,4.3,1.9,4.3,4.3h0c0,2.4-1.9,4.3-4.3,4.3h-13.7v13.7c0,2.4-1.9,4.3-4.3,4.3ZM32.6,28.3c-2.4,0-4.3,1.9-4.3,4.3s1.9,4.3,4.3,4.3,4.3-1.9,4.3-4.3-1.9-4.3-4.3-4.3Z"/>
  </g>
</svg>