<?xml version="1.0" encoding="UTF-8"?>
<svg id="Layer_2" data-name="Layer 2" xmlns="http://www.w3.org/2000/svg" viewBox="0 0 21 20.65">
  <defs>
    <style>
      .cls-1 {
        fill: #fff;
        fill-rule: evenodd;
        stroke-width: 0px;
      }
    </style>
  </defs>
  <g id="Layer_1-2" data-name="Layer 1">
    <path class="cls-1" d="m10.51,0C4.7,0,0,4.73,0,10.59c0,4.68,3.01,8.64,7.19,10.04.52.11.71-.23.71-.51,0-.25-.02-1.09-.02-1.96-2.92.63-3.53-1.26-3.53-1.26-.47-1.23-1.17-1.54-1.17-1.54-.96-.65.07-.65.07-.65,1.06.07,1.62,1.09,1.62,1.09.94,1.61,2.45,1.16,3.06.88.09-.68.37-1.16.66-1.42-2.33-.25-4.78-1.16-4.78-5.22,0-1.16.42-2.1,1.08-2.84-.1-.26-.47-1.35.1-2.8,0,0,.89-.28,2.89,1.09.86-.23,1.74-.35,2.63-.35.89,0,1.79.12,2.63.35,2-1.37,2.89-1.09,2.89-1.09.57,1.45.21,2.54.1,2.8.68.74,1.08,1.68,1.08,2.84,0,4.07-2.45,4.96-4.8,5.22.38.33.71.96.71,1.96,0,1.42-.02,2.56-.02,2.91,0,.28.19.61.71.51,4.18-1.4,7.19-5.36,7.19-10.04.02-5.85-4.7-10.59-10.49-10.59Z"/>
  </g>
</svg>