<?xml version="1.0" encoding="UTF-8"?>
<svg id="Layer_2" data-name="Layer 2" xmlns="http://www.w3.org/2000/svg" viewBox="0 0 256.64 213.57">
  <defs>
    <style>
      .cls-1 {
        fill: #fff;
        stroke-width: 0px;
      }
    </style>
  </defs>
  <g id="Brand_Image" data-name="Brand Image">
    <path class="cls-1" d="m222.61,204.92c-3.07,2.71,3.08-2.84,0,0-2.93,2.59-8.48,9.01-11.99,8.64-4.75-.5-1-5.66,1.38-8.98,4.69-6.53,15.03-14.55,17.65-21.22-55.59,20.57-108.29,23.37-151.2,6.93C35.78,173.93-.14,139.45,0,88.44.07,63.47,7.79,35.97,27.78,10.52c1.72-2.18,9.79-13.19,11.95-9.91,1.13,1.71-9.35,15.79-10.89,18.44-8.03,13.81-13.46,27.32-16.29,41.14-9.63,47.09,12.99,84.41,44.97,105.25,21.18,13.81,48.21,21.8,77.39,23.41,15.06.83,31.11.16,47.45-2.9,13.78-2.58,36.36-6.31,50-15.44-8.01-5.82-22.79-5.18-32.22-9.44-5-2.25-9.1-5.29-.53-8.23,5.24-1.8,10.69-.06,15.89,1.04,6.42,1.36,12.8,2.89,19.17,4.47,4.33,1.07,8.69,1.98,13.02,3.04,3.09.75,8.14,1.41,8.88,5.29,1.61,8.46-26.59,31.43-33.97,38.24Z"/>
  </g>
</svg>