<?xml version="1.0" encoding="UTF-8"?>
<svg id="Layer_2" data-name="Layer 2" xmlns="http://www.w3.org/2000/svg" viewBox="0 0 354.03 57.91">
  <defs>
    <style>
      .cls-1 {
        fill: #1b1e2a;
      }

      .cls-1, .cls-2, .cls-3, .cls-4, .cls-5, .cls-6 {
        stroke-width: 0px;
      }

      .cls-2 {
        fill: #9c9cff;
      }

      .cls-3 {
        fill: #06ccaf;
      }

      .cls-4 {
        fill: #000;
      }

      .cls-7 {
        opacity: .25;
      }

      .cls-5 {
        fill: #ffc269;
      }

      .cls-6 {
        fill: #ff6c73;
      }
    </style>
  </defs>
  <g id="Popup_2_copy" data-name="Popup 2 copy">
    <g>
      <g>
        <path class="cls-1" d="M113.64,32.7c0,4.91-1.4,8.66-4.19,11.27-2.79,2.61-6.83,3.91-12.1,3.91h-8.44v-29.8h9.36c4.86,0,8.64,1.28,11.33,3.85,2.69,2.57,4.03,6.16,4.03,10.76ZM107.08,32.86c0-6.4-2.83-9.6-8.48-9.6h-3.36v19.41h2.71c6.09,0,9.13-3.27,9.13-9.8Z"/>
        <path class="cls-1" d="M127.68,48.29c-3.67,0-6.54-1.01-8.6-3.04-2.06-2.03-3.1-4.89-3.1-8.6s.95-6.77,2.86-8.86c1.91-2.09,4.55-3.13,7.92-3.13s5.73.92,7.52,2.75c1.79,1.83,2.69,4.37,2.69,7.6v3.02h-14.7c.07,1.77.59,3.15,1.57,4.14.98.99,2.35,1.49,4.12,1.49,1.37,0,2.67-.14,3.89-.43,1.22-.29,2.5-.74,3.83-1.37v4.81c-1.09.54-2.25.95-3.49,1.21-1.24.27-2.75.4-4.53.4ZM126.81,29.09c-1.32,0-2.35.42-3.1,1.25-.75.83-1.18,2.02-1.29,3.56h8.72c-.03-1.54-.43-2.72-1.2-3.56-.77-.84-1.82-1.25-3.14-1.25Z"/>
        <path class="cls-1" d="M155.97,41.11c0,2.34-.81,4.12-2.44,5.34-1.62,1.22-4.05,1.83-7.29,1.83-1.66,0-3.07-.11-4.24-.34-1.17-.23-2.26-.55-3.28-.99v-5.14c1.16.54,2.46,1,3.9,1.37,1.45.37,2.72.55,3.82.55,2.26,0,3.39-.65,3.39-1.96,0-.49-.15-.89-.45-1.19-.3-.3-.82-.65-1.55-1.04-.73-.39-1.71-.84-2.94-1.36-1.75-.73-3.04-1.41-3.86-2.04-.82-.62-1.42-1.34-1.79-2.15-.37-.81-.56-1.8-.56-2.99,0-2.03.78-3.59,2.35-4.7,1.57-1.11,3.79-1.66,6.68-1.66s5.41.6,8.01,1.79l-1.88,4.48c-1.14-.49-2.21-.89-3.2-1.2-.99-.31-2-.47-3.04-.47-1.83,0-2.75.5-2.75,1.49,0,.56.29,1.04.88,1.45.59.41,1.89,1.01,3.88,1.81,1.78.72,3.09,1.39,3.91,2.02.83.62,1.44,1.35,1.84,2.16.39.82.59,1.79.59,2.91Z"/>
        <path class="cls-1" d="M158.59,19.2c0-2.03,1.13-3.04,3.38-3.04s3.39,1.01,3.39,3.04c0,.97-.28,1.72-.85,2.25-.56.54-1.41.8-2.54.8-2.25,0-3.38-1.02-3.38-3.06ZM165.07,47.88h-6.22v-22.79h6.22v22.79Z"/>
        <path class="cls-1" d="M189.47,25.09v3.16l-3.57.92c.65,1.02.98,2.16.98,3.42,0,2.45-.85,4.35-2.56,5.72-1.71,1.37-4.07,2.05-7.1,2.05l-1.12-.06-.92-.1c-.64.49-.96,1.03-.96,1.63,0,.9,1.14,1.35,3.42,1.35h3.88c2.5,0,4.41.54,5.72,1.61,1.31,1.07,1.97,2.65,1.97,4.73,0,2.66-1.11,4.73-3.33,6.2-2.22,1.47-5.41,2.2-9.57,2.2-3.18,0-5.61-.55-7.29-1.66-1.68-1.11-2.52-2.66-2.52-4.66,0-1.37.43-2.52,1.28-3.44.86-.92,2.12-1.58,3.77-1.98-.64-.27-1.2-.72-1.67-1.34-.47-.62-.71-1.27-.71-1.97,0-.87.25-1.59.76-2.17.5-.58,1.23-1.15,2.18-1.7-1.19-.52-2.14-1.35-2.84-2.49-.7-1.14-1.05-2.49-1.05-4.04,0-2.49.81-4.41,2.42-5.77,1.62-1.36,3.93-2.04,6.93-2.04.64,0,1.4.06,2.27.17.88.12,1.44.2,1.68.25h7.95ZM171.88,51.1c0,.86.41,1.53,1.23,2.02.82.49,1.97.73,3.46.73,2.23,0,3.98-.31,5.24-.92,1.27-.61,1.9-1.45,1.9-2.51,0-.86-.37-1.45-1.12-1.77-.75-.33-1.9-.49-3.47-.49h-3.22c-1.14,0-2.1.27-2.87.81-.77.54-1.15,1.25-1.15,2.13ZM174.14,32.55c0,1.24.28,2.21.85,2.94.56.72,1.42,1.08,2.58,1.08s2.03-.36,2.57-1.08c.54-.72.82-1.7.82-2.94,0-2.74-1.13-4.12-3.39-4.12s-3.42,1.37-3.42,4.12Z"/>
        <path class="cls-1" d="M212.29,47.88h-6.22v-13.31c0-1.64-.29-2.88-.88-3.7-.59-.82-1.52-1.23-2.79-1.23-1.74,0-3,.58-3.77,1.74-.77,1.16-1.16,3.09-1.16,5.78v10.72h-6.22v-22.79h4.75l.84,2.91h.35c.69-1.1,1.65-1.93,2.86-2.5,1.22-.56,2.6-.85,4.15-.85,2.65,0,4.66.72,6.03,2.15,1.37,1.43,2.06,3.5,2.06,6.21v14.86Z"/>
        <path class="cls-1" d="M247.27,47.88h-6.3v-12.86h-11.8v12.86h-6.32v-29.8h6.32v11.68h11.8v-11.68h6.3v29.8Z"/>
        <path class="cls-1" d="M267.01,47.88l-.83-2.91h-.33c-.67,1.06-1.61,1.88-2.83,2.46-1.22.58-2.62.87-4.18.87-2.68,0-4.7-.72-6.06-2.15-1.36-1.43-2.04-3.5-2.04-6.19v-14.86h6.22v13.31c0,1.64.29,2.88.88,3.7.59.82,1.52,1.23,2.79,1.23,1.74,0,3-.58,3.77-1.74.77-1.16,1.16-3.09,1.16-5.78v-10.72h6.22v22.79h-4.77Z"/>
        <path class="cls-1" d="M283.16,48.29c-2.68,0-4.78-1.04-6.31-3.12-1.53-2.08-2.29-4.96-2.29-8.64s.78-6.65,2.33-8.74c1.56-2.09,3.7-3.13,6.43-3.13,2.87,0,5.06,1.11,6.56,3.34h.2c-.31-1.7-.47-3.21-.47-4.55v-7.3h6.24v31.72h-4.77l-1.2-2.96h-.26c-1.41,2.24-3.57,3.36-6.46,3.36ZM285.34,43.34c1.59,0,2.76-.46,3.5-1.39.74-.92,1.15-2.49,1.21-4.71v-.67c0-2.45-.38-4.2-1.13-5.26-.75-1.06-1.98-1.59-3.68-1.59-1.39,0-2.46.59-3.23,1.76-.77,1.18-1.15,2.88-1.15,5.13s.39,3.92,1.16,5.04c.77,1.12,1.88,1.68,3.32,1.68Z"/>
        <path class="cls-1" d="M307.17,48.29c-2.68,0-4.78-1.04-6.31-3.12-1.53-2.08-2.29-4.96-2.29-8.64s.78-6.65,2.33-8.74c1.56-2.09,3.7-3.13,6.43-3.13,2.87,0,5.06,1.11,6.56,3.34h.2c-.31-1.7-.47-3.21-.47-4.55v-7.3h6.24v31.72h-4.77l-1.2-2.96h-.26c-1.41,2.24-3.57,3.36-6.46,3.36ZM309.35,43.34c1.59,0,2.76-.46,3.5-1.39.74-.92,1.15-2.49,1.21-4.71v-.67c0-2.45-.38-4.2-1.13-5.26-.75-1.06-1.98-1.59-3.68-1.59-1.39,0-2.46.59-3.23,1.76-.77,1.18-1.15,2.88-1.15,5.13s.39,3.92,1.16,5.04c.77,1.12,1.88,1.68,3.32,1.68Z"/>
        <path class="cls-1" d="M330.13,47.88h-6.22v-31.72h6.22v31.72Z"/>
        <path class="cls-1" d="M344.73,48.29c-3.67,0-6.54-1.01-8.6-3.04-2.06-2.03-3.1-4.89-3.1-8.6s.95-6.77,2.86-8.86c1.91-2.09,4.55-3.13,7.92-3.13s5.73.92,7.52,2.75c1.79,1.83,2.69,4.37,2.69,7.6v3.02h-14.7c.07,1.77.59,3.15,1.57,4.14.98.99,2.35,1.49,4.12,1.49,1.37,0,2.67-.14,3.89-.43,1.22-.29,2.5-.74,3.83-1.37v4.81c-1.09.54-2.25.95-3.49,1.21-1.24.27-2.75.4-4.53.4ZM343.86,29.09c-1.32,0-2.35.42-3.1,1.25-.75.83-1.18,2.02-1.29,3.56h8.72c-.03-1.54-.43-2.72-1.2-3.56-.77-.84-1.82-1.25-3.14-1.25Z"/>
      </g>
      <g>
        <path class="cls-6" d="M31.15,51.35h0c0,3.3,3.21,5.7,6.32,4.67,8.63-2.87,15.49-9.64,18.49-18.22,1.09-3.12-1.33-6.38-4.64-6.38h0c-2.01,0-3.88,1.22-4.54,3.12-2,5.78-6.62,10.33-12.43,12.24-1.94.64-3.21,2.52-3.21,4.57Z"/>
        <path class="cls-2" d="M5.13,31.42h0c-3.31,0-5.73,3.26-4.64,6.38,3,8.57,9.86,15.35,18.49,18.22,3.12,1.04,6.32-1.37,6.32-4.66h0c0-2.06-1.26-3.94-3.21-4.58-5.81-1.91-10.43-6.47-12.43-12.24-.66-1.9-2.53-3.12-4.54-3.12Z"/>
        <path class="cls-3" d="M25.31,4.91v-.02c0-3.29-3.22-5.69-6.34-4.65C10.07,3.21,3.05,10.33.22,19.3c-.98,3.11,1.4,6.28,4.67,6.28h0c2.11,0,3.98-1.36,4.62-3.37,1.89-5.98,6.58-10.72,12.52-12.71,1.97-.66,3.28-2.51,3.28-4.59Z"/>
        <path class="cls-5" d="M51.57,25.58h0c3.26,0,5.65-3.17,4.67-6.28C53.41,10.33,46.39,3.21,37.48.25c-3.12-1.04-6.34,1.36-6.34,4.65v.02c0,2.08,1.31,3.93,3.28,4.59,5.94,1.98,10.63,6.73,12.52,12.71.64,2.01,2.51,3.37,4.62,3.37Z"/>
      </g>
      <g class="cls-7">
        <g>
          <path class="cls-4" d="M88.54,10.1V3.06h2.28c.86,0,1.43.04,1.69.11.4.11.74.34,1.01.69.27.35.41.81.41,1.37,0,.43-.08.8-.24,1.09s-.36.53-.6.69-.49.28-.74.33c-.34.07-.83.1-1.48.1h-.93v2.66h-1.42ZM89.96,4.25v2h.78c.56,0,.94-.04,1.12-.11s.34-.19.44-.35.16-.34.16-.55c0-.26-.08-.47-.23-.63-.15-.17-.34-.27-.57-.31-.17-.03-.51-.05-1.02-.05h-.69Z"/>
          <path class="cls-4" d="M94.81,6.62c0-.72.11-1.32.32-1.81.16-.36.38-.68.66-.97.28-.29.58-.5.91-.63.44-.19.94-.28,1.52-.28,1.04,0,1.87.32,2.49.97s.93,1.54.93,2.69-.31,2.03-.93,2.67-1.44.96-2.48.96-1.88-.32-2.5-.96-.93-1.52-.93-2.64ZM96.28,6.57c0,.8.18,1.4.55,1.81s.84.62,1.4.62,1.03-.2,1.4-.61.55-1.02.55-1.84-.18-1.41-.53-1.81c-.35-.4-.82-.6-1.41-.6s-1.06.2-1.42.6c-.36.4-.54,1.01-.54,1.82Z"/>
          <path class="cls-4" d="M103.75,10.1l-1.68-7.04h1.46l1.06,4.84,1.29-4.84h1.69l1.23,4.92,1.08-4.92h1.43l-1.71,7.04h-1.51l-1.4-5.27-1.4,5.27h-1.54Z"/>
          <path class="cls-4" d="M112.04,10.1V3.06h5.22v1.19h-3.8v1.56h3.54v1.19h-3.54v1.92h3.93v1.19h-5.36Z"/>
          <path class="cls-4" d="M118.61,10.1V3.06h2.99c.75,0,1.3.06,1.64.19.34.13.61.35.82.68.2.32.31.69.31,1.11,0,.53-.16.96-.47,1.31s-.78.56-1.39.65c.31.18.56.38.76.59s.47.6.81,1.14l.86,1.37h-1.7l-1.03-1.53c-.37-.55-.61-.89-.75-1.04s-.28-.24-.43-.29-.39-.08-.72-.08h-.29v2.94h-1.42ZM120.03,6.04h1.05c.68,0,1.11-.03,1.28-.09s.3-.16.4-.3.14-.32.14-.53c0-.24-.06-.43-.19-.57-.13-.15-.31-.24-.54-.28-.12-.02-.46-.02-1.04-.02h-1.11v1.79Z"/>
          <path class="cls-4" d="M125.71,10.1V3.06h5.22v1.19h-3.8v1.56h3.54v1.19h-3.54v1.92h3.93v1.19h-5.36Z"/>
          <path class="cls-4" d="M132.27,3.06h2.6c.59,0,1.03.04,1.34.13.41.12.77.34,1.06.65.29.31.52.69.67,1.14.15.45.23,1,.23,1.66,0,.58-.07,1.08-.22,1.5-.18.51-.43.93-.75,1.24-.25.24-.58.43-1,.56-.31.1-.73.15-1.26.15h-2.68V3.06ZM133.69,4.25v4.67h1.06c.4,0,.68-.02.86-.07.23-.06.42-.16.57-.29s.28-.36.37-.68.14-.75.14-1.29-.05-.96-.14-1.25c-.1-.29-.23-.52-.4-.68s-.39-.27-.66-.33c-.2-.04-.59-.07-1.17-.07h-.64Z"/>
          <path class="cls-4" d="M142.12,3.06h2.82c.56,0,.97.02,1.25.07.27.05.52.14.74.29.22.15.4.34.54.59s.22.52.22.82c0,.33-.09.63-.27.91s-.42.48-.72.62c.43.12.76.34.99.64s.35.66.35,1.06c0,.32-.07.63-.22.93s-.35.54-.61.73-.58.29-.95.33c-.24.03-.81.04-1.72.05h-2.4V3.06ZM143.54,4.23v1.63h.93c.55,0,.9,0,1.03-.02.24-.03.43-.11.57-.25s.21-.32.21-.55-.06-.39-.18-.53c-.12-.14-.3-.22-.54-.25-.14-.02-.55-.02-1.22-.02h-.82ZM143.54,7.03v1.88h1.32c.51,0,.84-.01.98-.04.21-.04.38-.13.52-.28s.2-.35.2-.6c0-.21-.05-.39-.15-.54s-.25-.25-.44-.32-.61-.1-1.26-.1h-1.15Z"/>
          <path class="cls-4" d="M151.07,10.1v-2.96l-2.58-4.08h1.67l1.66,2.79,1.62-2.79h1.64l-2.59,4.09v2.95h-1.42Z"/>
        </g>
      </g>
    </g>
  </g>
</svg>