<?xml version="1.0" encoding="UTF-8"?>
<svg id="Layer_1" data-name="Layer 1" xmlns="http://www.w3.org/2000/svg" width="226.7" height="32.9" version="1.1" viewBox="0 0 226.7 32.9">
  <defs>
    <style>
      .cls-1 {
        fill: #000;
      }

      .cls-1, .cls-2 {
        stroke-width: 0px;
      }

      .cls-2 {
        fill: #4239ff;
      }

       .cls-3 {
        fill: #fff;
      }
    </style>
  </defs>
  <g>
    <path class="cls-1" d="M51.5,14.1v1.8h4.1v1.6h-4.1v3.3h-1.8v-8.2h6.3v1.6h-4.6Z"/>
    <path class="cls-1" d="M62.3,20.7l-1.9-2.7h-1.3v2.7h-1.8v-8.2h3.7c1.8,0,3.1,1.2,3.1,2.8s-.7,2.2-1.9,2.6l2,2.9h-2ZM59.1,16.4h1.8c.9,0,1.5-.5,1.5-1.2s-.6-1.2-1.5-1.2h-1.8v2.3Z"/>
    <path class="cls-1" d="M67.2,14.1v1.6h4.1v1.6h-4.1v1.8h4.6v1.6h-6.3v-8.2h6.3v1.6h-4.6Z"/>
    <path class="cls-1" d="M74.9,14.1v1.6h4.1v1.6h-4.1v1.8h4.6v1.6h-6.3v-8.2h6.3v1.6h-4.6Z"/>
    <path class="cls-1" d="M83.9,16.6c0-2.3,2-4.3,4.4-4.3s4.4,1.9,4.4,4.3-2,4.3-4.4,4.3-4.4-2-4.4-4.3ZM90.8,16.6c0-1.4-1.2-2.7-2.6-2.7s-2.6,1.2-2.6,2.7,1.2,2.7,2.6,2.7,2.6-1.2,2.6-2.7Z"/>
    <path class="cls-1" d="M95.7,14.1v1.8h4.1v1.6h-4.1v3.3h-1.8v-8.2h6.3v1.6h-4.6Z"/>
    <path class="cls-1" d="M103.3,14.1v1.8h4.1v1.6h-4.1v3.3h-1.8v-8.2h6.3v1.6h-4.6Z"/>
    <path class="cls-1" d="M109.2,12.5h1.8v8.2h-1.8v-8.2Z"/>
    <path class="cls-1" d="M112.3,16.6c0-2.3,2-4.3,4.4-4.3s2.4.5,3.2,1.4l-1.3,1.2c-.5-.6-1.2-.9-1.9-.9-1.4,0-2.6,1.2-2.6,2.7s1.2,2.7,2.6,2.7,1.4-.4,1.9-.9l1.3,1.2c-.8.8-2,1.4-3.2,1.4-2.4,0-4.4-2-4.4-4.3Z"/>
    <path class="cls-1" d="M122.7,14.1v1.6h4.1v1.6h-4.1v1.8h4.6v1.6h-6.3v-8.2h6.3v1.6h-4.6Z"/>
    <path class="cls-1" d="M132.1,12.5h4.2c1.5,0,2.5.9,2.5,2.1s-.4,1.5-1.2,1.8c1,.4,1.5,1.2,1.5,2.1,0,1.3-1.1,2.2-2.7,2.2h-4.3v-8.2ZM135.8,15.8c.7,0,1.1-.4,1.1-.9s-.5-.9-1.1-.9h-2v1.8h2ZM136.1,19.2c.7,0,1.2-.4,1.2-1s-.5-1-1.2-1h-2.2v2h2.2Z"/>
    <path class="cls-1" d="M145.9,19.4h-3.7l-.5,1.3h-2l3.4-8.2h2l3.4,8.2h-2l-.5-1.3ZM145.3,17.9l-1.2-3-1.2,3h2.4Z"/>
    <path class="cls-1" d="M149.1,16.6c0-2.3,2-4.3,4.4-4.3s2.4.5,3.2,1.4l-1.3,1.2c-.5-.6-1.2-.9-1.9-.9-1.4,0-2.6,1.2-2.6,2.7s1.2,2.7,2.6,2.7,1.4-.4,1.9-.9l1.3,1.2c-.8.8-2,1.4-3.2,1.4-2.4,0-4.4-2-4.4-4.3Z"/>
    <path class="cls-1" d="M157.8,12.5h1.8v3.8l3.3-3.8h2.1l-3.2,3.6,3.4,4.7h-2.1l-2.5-3.4-1,1.1v2.3h-1.8v-8.2Z"/>
    <path class="cls-1" d="M169.9,16.1h3.6v3.4c-.8.9-2.1,1.4-3.3,1.4-2.4,0-4.4-2-4.4-4.3s2-4.3,4.4-4.3,2.5.5,3.3,1.4l-1.3,1.2c-.5-.6-1.3-.9-2.1-.9-1.4,0-2.6,1.2-2.6,2.7s1.2,2.7,2.6,2.7,1.1-.2,1.6-.5v-1.3h-1.9v-1.4Z"/>
    <path class="cls-1" d="M180,20.7l-1.9-2.7h-1.3v2.7h-1.8v-8.2h3.7c1.8,0,3.1,1.2,3.1,2.8s-.7,2.2-1.9,2.6l2,2.9h-2ZM176.8,16.4h1.8c.9,0,1.5-.5,1.5-1.2s-.6-1.2-1.5-1.2h-1.8v2.3Z"/>
    <path class="cls-1" d="M182.9,16.6c0-2.3,2-4.3,4.4-4.3s4.4,1.9,4.4,4.3-2,4.3-4.4,4.3-4.4-2-4.4-4.3ZM189.8,16.6c0-1.4-1.2-2.7-2.6-2.7s-2.6,1.2-2.6,2.7,1.2,2.7,2.6,2.7,2.6-1.2,2.6-2.7Z"/>
    <path class="cls-1" d="M192.9,17.2v-4.7h1.8v4.6c0,1.3.8,2.2,2,2.2s2-.9,2-2.2v-4.6h1.8v4.7c0,2.2-1.5,3.7-3.7,3.7s-3.7-1.5-3.7-3.7Z"/>
    <path class="cls-1" d="M202.1,12.5h1.8l4,5.3v-5.3h1.8v8.2h-1.8l-4-5.3v5.3h-1.8v-8.2Z"/>
    <path class="cls-1" d="M211.3,12.5h3c2.8,0,4.7,1.7,4.7,4.1s-2,4.1-4.7,4.1h-3v-8.2ZM214.5,19.1c1.6,0,2.7-1,2.7-2.5s-1.1-2.5-2.7-2.5h-1.4v5h1.4Z"/>
    <path class="cls-1" d="M219.9,19.5l1-1.2c.8.7,1.7,1.1,2.7,1.1s1.3-.4,1.3-.9-.5-.8-1.7-1.1c-1.7-.4-3-.9-3-2.5s1.2-2.6,3-2.6,2.4.4,3.2,1.1l-.9,1.3c-.7-.6-1.6-.9-2.4-.9s-1.2.4-1.2.9.5.8,1.8,1.1c1.8.4,3,.9,3,2.4s-1.2,2.6-3.2,2.6-2.7-.5-3.7-1.4Z"/>
  </g>
  <rect class="cls-2" width="32.9" height="32.9" rx="3.1" ry="3.1"/>
  <path class="cls-3" d="M11.3,24h0c-1.3,0-2.4-1.1-2.4-2.4v-10.2c0-1.3,1.1-2.4,2.4-2.4h10.2c1.3,0,2.4,1.1,2.4,2.4h0c0,1.3-1.1,2.4-2.4,2.4h-7.8v7.8c0,1.3-1.1,2.4-2.4,2.4ZM18.6,16.1c-1.3,0-2.4,1.1-2.4,2.4s1.1,2.4,2.4,2.4,2.4-1.1,2.4-2.4-1.1-2.4-2.4-2.4Z"/>
</svg>