<?xml version="1.0" encoding="UTF-8"?>
<svg id="Layer_1" data-name="Layer 1" xmlns="http://www.w3.org/2000/svg" width="26.4" height="26.4" version="1.1" viewBox="0 0 26.4 26.4">
  <defs>
    <style>
      .cls-1 {
        fill: #fff;
        stroke-width: 0px;
      }
    </style>
  </defs>
  <path class="cls-1" d="M13.2,25.5c-3.2,0-6.4-1.3-8.7-3.6-2.3-2.3-3.6-5.5-3.6-8.7s1.3-6.4,3.6-8.7C6.8,2.2,9.9.9,13.2.9s6.4,1.3,8.7,3.6c2.3,2.3,3.6,5.4,3.6,8.7s-1.3,6.4-3.6,8.7c-2.3,2.3-5.5,3.6-8.7,3.6ZM13.2,2.9c-2.7,0-5.4,1.1-7.3,3s-3,4.6-3,7.3,1.1,5.4,3,7.3,4.6,3,7.3,3,5.4-1.1,7.3-3,3-4.5,3-7.3-1.1-5.4-3-7.3-4.6-3-7.3-3Z"/>
  <path class="cls-1" d="M11,8.8c-.4-.3-1,0-1,.6v7.6c0,.5.5.8,1,.6l6.6-3.8c.4-.3.4-.9,0-1.1l-6.6-3.9Z"/>
</svg>